<svg xmlns="http://www.w3.org/2000/svg" width="14" height="14" viewBox="0 0 14 14">
    <g fill="none" fill-rule="evenodd">
        <circle cx="7" cy="7" r="6.5" fill="#68AEFF" stroke="#FFF"/>
        <path fill="#FFF" fill-rule="nonzero" d="M5.134 5.169a1 1 0 0 0-.676.646L3 10.188l.23.229 2.345-2.345a.75.75 0 1 1 .353.353L3.583 10.77l.23.23 4.372-1.458a1 1 0 0 0 .646-.676L9.5 6.5l-2-2-2.366.669zm5.646-1.01l-.939-.94a.75.75 0 0 0-1.061 0l-.884.884 2 2 .884-.883a.75.75 0 0 0 0-1.061z"/>
    </g>
</svg>
