<svg xmlns="http://www.w3.org/2000/svg" width="15" height="25" viewBox="0 0 15 25">
    <path fill="#D6D6D6" fill-rule="evenodd" d="M10.99 14.786l4.01 4.01L13.797 20l-3.974-4.01v-.62l-.255-.219c-.973.826-2.103 1.24-3.39 1.24-1.435 0-2.656-.505-3.665-1.513C1.504 13.868 1 12.648 1 11.214c0-1.434.504-2.662 1.513-3.683C3.522 6.511 4.731 6 6.141 6c1.434 0 2.655.51 3.664 1.531 1.008 1.021 1.513 2.249 1.513 3.683 0 1.288-.413 2.418-1.24 3.39l.255.182h.657zm-7.365-1.02c.705.68 1.556 1.02 2.552 1.02.997 0 1.847-.346 2.552-1.039.705-.692 1.057-1.537 1.057-2.533 0-.997-.352-1.848-1.057-2.553a3.478 3.478 0 0 0-2.552-1.057c-.996 0-1.841.353-2.534 1.057-.692.705-1.039 1.556-1.039 2.553 0 .996.34 1.847 1.021 2.552z"/>
</svg>
