<svg xmlns="http://www.w3.org/2000/svg" width="15" height="17" viewBox="0 0 15 17">
    <path fill="#263A70" fill-rule="nonzero" d="M.469 10.438a.469.469 0 0 0-.469.468v.938c0 .259.21.469.469.469H3.75v-1.876H.469zm9.844-4.454V2h-5.86a.701.701 0 0 0-.703.703v7.735H7.5v-1.91c0-.418.506-.627.801-.33l2.804 2.825a.5.5 0 0 1 0 .704l-2.804 2.825a.469.469 0 0 1-.801-.33v-1.91H3.75v3.985c0 .39.313.703.703.703h9.844c.39 0 .703-.313.703-.703v-9.61h-3.984a.705.705 0 0 1-.704-.703zm4.482-.908l-2.868-2.87A.703.703 0 0 0 11.429 2h-.179v3.75H15v-.179a.7.7 0 0 0-.205-.495z"/>
</svg>
