<svg id="Layer_7" data-name="Layer 7" xmlns="http://www.w3.org/2000/svg" xmlns:xlink="http://www.w3.org/1999/xlink" viewBox="0 0 39.9 33.66"><defs><style>.cls-1{fill:#27a7de;}.cls-2{clip-path:url(#clip-path);}.cls-3{fill:#6cabdc;}.cls-3,.cls-4,.cls-5{fill-rule:evenodd;}.cls-4{fill:#eeefef;}.cls-5{fill:#002d6a;}</style><clipPath id="clip-path" transform="translate(-40.47 85.55)"><rect class="cls-1" x="40.75" y="-84.8" width="39.12" height="32.41"/></clipPath></defs><title>Vector</title><rect class="cls-1" x="0.28" y="0.74" width="39.12" height="32.41"/><g class="cls-2"><path class="cls-3" d="M78.23-84.9s-6.32,7.16-13.11,6.62-8.55-2.17-14-3.28S42.41-81.85,40.94-78a17,17,0,0,0-.32,3.09v-10.6H78.8Z" transform="translate(-40.47 85.55)"/><path class="cls-4" d="M78.23-85s-6.32,7.16-13.11,6.62-8.55-2.16-14-3.28-8.69-.29-10.16,3.54A5.56,5.56,0,0,0,43.2-71c1.47,1,3.51,1.79,10.54,1.86A16.77,16.77,0,0,0,51-59.5c0.06,5.9,7.75,11.15,15.81,3.73,4.84-4.55,2.15-12.38-4.63-9.13C60-63.68,56.69-59,57.85-58.35c0.68,0.13.93-.47,1.22-1.22s3.34-6.09,6.68-4.44S64-52,57.15-53.53s-1.87-14,0-16.07c0,0,5.45-.91,6.81-1.73l-0.06-1S59-71.14,58-70.95c0,0,2.82-4.27,3.47-5a18.62,18.62,0,0,0-4.37,2.12s-0.82.44-2.7,3.41c0,0-10.74,1.19-12.47-4.43-0.68-2.68.63-6.28,7.71-3.92S69.33-72.2,79.26-85Z" transform="translate(-40.47 85.55)"/><path class="cls-5" d="M79.26-85c-9.93,12.82-22.55,8.6-29.63,6.24s-8.39,1.24-7.71,3.92c1.73,5.62,12.47,4.44,12.47,4.44,1.88-3,2.7-3.41,2.7-3.41A18.5,18.5,0,0,1,61.46-76c-0.65.75-3.47,5-3.47,5,1-.19,5.91-1.41,5.91-1.41l0.06,1c-1.36.83-6.81,1.74-6.81,1.74-1.87,2.07-6.81,14.52,0,16.07s12-8.83,8.61-10.48-6.39,3.68-6.69,4.44-0.55,1.34-1.22,1.22C56.69-59,60-63.7,62.17-64.92c6.78-3.25,9.46,4.58,4.63,9.13C58.74-48.37,51-53.61,51-59.52a16.79,16.79,0,0,1,2.77-9.64c-7-.07-9.07-0.91-10.54-1.86a5.83,5.83,0,0,1-2.64-3.74v22.88H80.37V-85.1Z" transform="translate(-40.47 85.55)"/></g></svg>