<svg xmlns="http://www.w3.org/2000/svg" width="14" height="18" viewBox="0 0 14 18">
    <path fill="#6AAEDC" fill-rule="nonzero" d="M4.667 5.5v9.917a.583.583 0 0 1-.584.583H1.167a.583.583 0 0 1-.584-.583V5.5H0V4.333h5.25V5.5h-.583zm-2.917 0v5.25H3.5V5.5H1.75zm0-3.5H3.5c.322 0 .583.261.583.583V3.75H1.167V2.583c0-.322.26-.583.583-.583zm5.833 0h4.667c.322 0 .583.261.583.583V3.75H7V2.583C7 2.261 7.261 2 7.583 2zM7 4.333h5.775L14 7.892v7.525a.583.583 0 0 1-.583.583h-7a.583.583 0 0 1-.584-.583V7.892L7 4.333zm0 7.642v2.858h5.833v-2.858H7zm1.167-5.892L7 8.388V9h5.833v-.612l-1.128-2.305H8.167z"/>
</svg>
